<?xml version="1.0" encoding="UTF-8"?>
<!DOCTYPE svg PUBLIC "-//W3C//DTD SVG 1.1//EN" "http://www.w3.org/Graphics/SVG/1.1/DTD/svg11.dtd">
<svg xmlns="http://www.w3.org/2000/svg" version="1.1" width="229px" height="170px" style="shape-rendering:geometricPrecision; text-rendering:geometricPrecision; image-rendering:optimizeQuality; fill-rule:evenodd; clip-rule:evenodd" xmlns:xlink="http://www.w3.org/1999/xlink">
<g><path style="opacity:0.871" fill="#e0aba1" d="M 57.5,18.5 C 55.1667,18.5 52.8333,18.5 50.5,18.5C 51.172,17.7326 52.0053,17.0659 53,16.5C 54.6536,16.2063 56.1536,16.873 57.5,18.5 Z"/></g>
<g><path style="opacity:0.468" fill="#ebb1a1" d="M 93.5,20.5 C 105.993,19.34 118.66,19.1733 131.5,20C 133.727,20.941 135.727,22.1077 137.5,23.5C 134.689,23.1743 132.022,22.3409 129.5,21C 117.505,20.5001 105.505,20.3335 93.5,20.5 Z"/></g>
<g><path style="opacity:1" fill="#cf7156" d="M 50.5,18.5 C 52.8333,18.5 55.1667,18.5 57.5,18.5C 57.8333,18.5 58.1667,18.5 58.5,18.5C 58.87,22.1859 57.5367,23.1859 54.5,21.5C 54.1667,21.5 53.8333,21.5 53.5,21.5C 52.5,21.5 51.5,21.5 50.5,21.5C 50.7989,23.604 50.4656,25.604 49.5,27.5C 49.1667,26.5 48.8333,25.5 48.5,24.5C 48.7186,22.3069 49.3852,20.3069 50.5,18.5 Z"/></g>
<g><path style="opacity:1" fill="#db9a86" d="M 58.5,18.5 C 60.1172,20.1209 61.2838,22.1209 62,24.5C 63.8761,25.6087 65.7095,26.6087 67.5,27.5C 64.8187,27.5379 62.3187,26.8713 60,25.5C 58.4447,26.8475 56.6113,27.5142 54.5,27.5C 52.9704,27.3601 51.9704,26.6935 51.5,25.5C 56.3849,26.9527 57.3849,25.6194 54.5,21.5C 57.5367,23.1859 58.87,22.1859 58.5,18.5 Z"/></g>
<g><path style="opacity:0.727" fill="#d89281" d="M 93.5,20.5 C 93.0472,21.4584 92.3805,22.2917 91.5,23C 91.8333,23.3333 92.1667,23.6667 92.5,24C 105.34,24.1691 118.007,24.6691 130.5,25.5C 118.495,25.3335 106.495,25.5001 94.5,26C 93.7562,27.0386 92.7562,27.5386 91.5,27.5C 91.5,26.5 91.5,25.5 91.5,24.5C 89.8333,24.5 88.1667,24.5 86.5,24.5C 88.5664,22.8009 90.8997,21.4676 93.5,20.5 Z"/></g>
<g><path style="opacity:1" fill="#dda19c" d="M 174.5,18.5 C 176.533,19.8984 177.533,21.8984 177.5,24.5C 177.564,26.5566 176.898,28.2233 175.5,29.5C 175.677,25.7657 175.344,22.0991 174.5,18.5 Z"/></g>
<g><path style="opacity:1" fill="#e1a494" d="M 137.5,23.5 C 141.253,24.8594 144.919,26.1927 148.5,27.5C 145.962,27.4928 143.462,27.1595 141,26.5C 139.092,26.2849 137.926,25.2849 137.5,23.5 Z"/></g>
<g><path style="opacity:1" fill="#d17259" d="M 93.5,20.5 C 105.505,20.3335 117.505,20.5001 129.5,21C 132.022,22.3409 134.689,23.1743 137.5,23.5C 137.926,25.2849 139.092,26.2849 141,26.5C 143.462,27.1595 145.962,27.4928 148.5,27.5C 152.684,28.1664 157.018,28.8331 161.5,29.5C 160.975,30.1924 160.308,30.6924 159.5,31C 154.511,31.4993 149.511,31.6659 144.5,31.5C 139.327,30.5776 134.66,28.5776 130.5,25.5C 118.007,24.6691 105.34,24.1691 92.5,24C 92.1667,23.6667 91.8333,23.3333 91.5,23C 92.3805,22.2917 93.0472,21.4584 93.5,20.5 Z"/></g>
<g><path style="opacity:1" fill="#d58975" d="M 174.5,18.5 C 175.344,22.0991 175.677,25.7657 175.5,29.5C 175.167,29.5 174.833,29.5 174.5,29.5C 174.5,28.5 174.5,27.5 174.5,26.5C 173.5,26.5 172.5,26.5 171.5,26.5C 170.791,27.404 169.791,27.7373 168.5,27.5C 168.433,28.9587 168.766,30.2921 169.5,31.5C 168.183,31.179 166.849,30.8457 165.5,30.5C 158.5,33.9273 151.5,34.2606 144.5,31.5C 149.511,31.6659 154.511,31.4993 159.5,31C 160.308,30.6924 160.975,30.1924 161.5,29.5C 157.018,28.8331 152.684,28.1664 148.5,27.5C 153.006,27.8518 157.339,27.1852 161.5,25.5C 162.924,20.5738 166.091,17.5738 171,16.5C 172.113,17.305 173.279,17.9717 174.5,18.5 Z M 171.5,26.5 C 166.008,24.2828 166.342,22.9494 172.5,22.5C 172.567,23.9587 172.234,25.2921 171.5,26.5 Z"/></g>
<g><path style="opacity:1" fill="#d46e4c" d="M 164.5,21.5 C 166.536,23.2057 167.536,25.539 167.5,28.5C 166.127,28.6567 164.793,28.49 163.5,28C 164.423,25.9592 164.756,23.7925 164.5,21.5 Z"/></g>
<g><path style="opacity:1" fill="#d16f57" d="M 85.5,24.5 C 85.8333,24.5 86.1667,24.5 86.5,24.5C 88.1667,24.5 89.8333,24.5 91.5,24.5C 91.5,25.5 91.5,26.5 91.5,27.5C 88.4781,27.804 85.4781,28.304 82.5,29C 81.7476,29.6708 81.4142,30.5041 81.5,31.5C 81.1667,31.5 80.8333,31.5 80.5,31.5C 75.8215,31.6658 71.1548,31.4992 66.5,31C 65.376,30.7508 64.376,30.2508 63.5,29.5C 69.4725,28.6697 75.4725,28.1697 81.5,28C 83.0931,27.0513 84.4264,25.8846 85.5,24.5 Z"/></g>
<g><path style="opacity:1" fill="#d89580" d="M 91.5,27.5 C 88.4701,29.4032 85.1368,30.7365 81.5,31.5C 81.4142,30.5041 81.7476,29.6708 82.5,29C 85.4781,28.304 88.4781,27.804 91.5,27.5 Z"/></g>
<g><path style="opacity:0.757" fill="#e2a697" d="M 125.5,28.5 C 127.088,29.6353 127.421,30.9686 126.5,32.5C 117.853,33.6652 109.186,33.8319 100.5,33C 99.0091,30.9783 99.3424,29.3117 101.5,28C 109.677,27.1772 117.677,27.3439 125.5,28.5 Z"/></g>
<g><path style="opacity:1" fill="#ce7059" d="M 125.5,28.5 C 125.461,29.5832 125.127,30.5832 124.5,31.5C 116.862,32.4975 109.196,32.8308 101.5,32.5C 101.33,31.1779 101.663,30.0113 102.5,29C 110.159,28.5003 117.826,28.3336 125.5,28.5 Z"/></g>
<g><path style="opacity:1" fill="#d39583" d="M 102.5,38.5 C 99.0228,35.8855 95.0228,34.8855 90.5,35.5C 92.7954,33.615 95.462,33.115 98.5,34C 100.751,34.7475 102.084,36.2475 102.5,38.5 Z"/></g>
<g><path style="opacity:1" fill="#d69c8b" d="M 138.5,38.5 C 137.078,38.2504 136.078,37.417 135.5,36C 132.518,35.502 129.518,35.3354 126.5,35.5C 126.611,34.8826 126.944,34.3826 127.5,34C 129.833,33.3333 132.167,33.3333 134.5,34C 136.751,34.7475 138.084,36.2475 138.5,38.5 Z"/></g>
<g><path style="opacity:0.666" fill="#d9a497" d="M 174.5,29.5 C 174.833,29.5 175.167,29.5 175.5,29.5C 174.54,36.0779 174.207,42.7446 174.5,49.5C 173.167,42.8333 173.167,36.1667 174.5,29.5 Z"/></g>
<g><path style="opacity:1" fill="#d47962" d="M 171.5,26.5 C 172.5,26.5 173.5,26.5 174.5,26.5C 174.5,27.5 174.5,28.5 174.5,29.5C 173.167,36.1667 173.167,42.8333 174.5,49.5C 174.59,51.6963 174.923,53.863 175.5,56C 175.316,57.3756 174.649,58.2089 173.5,58.5C 173.179,56.9519 172.179,56.2852 170.5,56.5C 170.071,59.3626 169.071,62.0293 167.5,64.5C 167.167,64 166.833,63.5 166.5,63C 168.348,59.7782 169.348,56.2782 169.5,52.5C 169.5,45.5 169.5,38.5 169.5,31.5C 168.766,30.2921 168.433,28.9587 168.5,27.5C 169.791,27.7373 170.791,27.404 171.5,26.5 Z"/></g>
<g><path style="opacity:1" fill="#d5836d" d="M 50.5,18.5 C 49.3852,20.3069 48.7186,22.3069 48.5,24.5C 48.8333,25.5 49.1667,26.5 49.5,27.5C 50.4656,25.604 50.7989,23.604 50.5,21.5C 51.5,21.5 52.5,21.5 53.5,21.5C 52.3995,22.6049 51.7329,23.9382 51.5,25.5C 51.9704,26.6935 52.9704,27.3601 54.5,27.5C 56.6113,27.5142 58.4447,26.8475 60,25.5C 62.3187,26.8713 64.8187,27.5379 67.5,27.5C 73.7281,27.7751 79.7281,26.7751 85.5,24.5C 84.4264,25.8846 83.0931,27.0513 81.5,28C 75.4725,28.1697 69.4725,28.6697 63.5,29.5C 64.376,30.2508 65.376,30.7508 66.5,31C 71.1548,31.4992 75.8215,31.6658 80.5,31.5C 73.0888,34.6228 65.9222,33.9562 59,29.5C 57.8904,31.0368 56.3904,31.7035 54.5,31.5C 54.5,37.5 54.5,43.5 54.5,49.5C 54.5,51.5 54.5,53.5 54.5,55.5C 53.5,55.5 52.5,55.5 51.5,55.5C 51.5,56.8333 51.5,58.1667 51.5,59.5C 51.2041,61.403 50.5375,63.0697 49.5,64.5C 46.5287,69.8889 45.1953,69.2222 45.5,62.5C 49.3657,51.8676 50.5324,40.8676 49,29.5C 45.475,25.2705 45.975,21.6038 50.5,18.5 Z"/></g>
<g><path style="opacity:1" fill="#d9927e" d="M 126.5,35.5 C 126.163,37.672 125.163,39.5054 123.5,41C 124.137,42.7126 125.137,42.8793 126.5,41.5C 127.386,40.675 127.719,39.675 127.5,38.5C 129.527,38.3379 131.527,38.5045 133.5,39C 134.337,40.0113 134.67,41.1779 134.5,42.5C 132.323,39.9387 130.156,39.9387 128,42.5C 127.667,74.8333 127.333,107.167 127,139.5C 125.301,140.406 123.467,140.739 121.5,140.5C 121.333,107.498 121.5,74.4983 122,41.5C 122.624,38.7261 124.124,36.7261 126.5,35.5 Z"/></g>
<g><path style="opacity:0.985" fill="#c6755e" d="M 112.5,45.5 C 113.167,169.5 113.833,169.5 114.5,45.5C 115.498,76.3288 115.831,107.329 115.5,138.5C 115.179,140.048 114.179,140.715 112.5,140.5C 111.172,108.736 111.172,77.069 112.5,45.5 Z"/></g>
<g><path style="opacity:1" fill="#d07057" d="M 123.5,45.5 C 124.117,45.6107 124.617,45.944 125,46.5C 125.5,77.1649 125.667,107.832 125.5,138.5C 124.5,138.5 123.5,138.5 122.5,138.5C 123.437,107.514 123.77,76.5144 123.5,45.5 Z"/></g>
<g><path style="opacity:1" fill="#d56e51" d="M 100.5,45.5 C 101.833,60.1515 102.499,75.1515 102.5,90.5C 102.499,105.849 101.833,120.849 100.5,135.5C 100.5,105.5 100.5,75.5 100.5,45.5 Z"/></g>
<g><path style="opacity:1" fill="#d3775d" d="M 126.5,35.5 C 129.518,35.3354 132.518,35.502 135.5,36C 136.078,37.417 137.078,38.2504 138.5,38.5C 140.963,42.9531 141.13,47.6197 139,52.5C 138.292,53.3805 137.458,54.0472 136.5,54.5C 135.167,54.5 133.833,54.5 132.5,54.5C 132.284,52.3193 133.117,50.6526 135,49.5C 135.796,46.9615 135.629,44.6282 134.5,42.5C 134.67,41.1779 134.337,40.0113 133.5,39C 131.527,38.5045 129.527,38.3379 127.5,38.5C 127.719,39.675 127.386,40.675 126.5,41.5C 125.137,42.8793 124.137,42.7126 123.5,41C 125.163,39.5054 126.163,37.672 126.5,35.5 Z"/></g>
<g><path style="opacity:1" fill="#d9998a" d="M 91.5,48.5 C 94.5317,49.9991 96.0317,52.3324 96,55.5C 93.1282,58.227 90.6282,57.8937 88.5,54.5C 90.4352,55.1495 92.4352,55.4828 94.5,55.5C 93.5233,53.1791 92.5233,50.8458 91.5,48.5 Z"/></g>
<g><path style="opacity:1" fill="#d49685" d="M 134.5,42.5 C 135.629,44.6282 135.796,46.9615 135,49.5C 133.117,50.6526 132.284,52.3193 132.5,54.5C 133.833,54.5 135.167,54.5 136.5,54.5C 133.81,58.4127 131.81,58.246 130.5,54C 130.817,51.6721 131.984,49.8387 134,48.5C 134.495,46.5273 134.662,44.5273 134.5,42.5 Z"/></g>
<g><path style="opacity:1" fill="#d88c7b" d="M 174.5,49.5 C 176.871,54.2647 178.871,59.2647 180.5,64.5C 179.85,64.1961 179.183,63.8627 178.5,63.5C 177.534,65.396 177.201,67.396 177.5,69.5C 175.792,66.0497 174.459,62.383 173.5,58.5C 174.649,58.2089 175.316,57.3756 175.5,56C 174.923,53.863 174.59,51.6963 174.5,49.5 Z"/></g>
<g><path style="opacity:1" fill="#d07054" d="M 58.5,59.5 C 58.2355,63.6533 59.5688,66.9867 62.5,69.5C 62.5,69.8333 62.5,70.1667 62.5,70.5C 62.8511,72.8695 63.0178,75.2028 63,77.5C 62.7216,76.5842 62.2216,75.9175 61.5,75.5C 58.2628,69.4597 56.2628,63.1264 55.5,56.5C 56.2876,57.7701 57.2876,58.7701 58.5,59.5 Z"/></g>
<g><path style="opacity:0.992" fill="#db9c89" d="M 54.5,49.5 C 56.3459,52.54 57.6792,55.8733 58.5,59.5C 57.2876,58.7701 56.2876,57.7701 55.5,56.5C 56.2628,63.1264 58.2628,69.4597 61.5,75.5C 61.5,76.8333 61.5,78.1667 61.5,79.5C 58.2042,72.8002 55.3709,65.8002 53,58.5C 52.6174,59.056 52.1174,59.3893 51.5,59.5C 51.5,58.1667 51.5,56.8333 51.5,55.5C 52.5,55.5 53.5,55.5 54.5,55.5C 54.5,53.5 54.5,51.5 54.5,49.5 Z"/></g>
<g><path style="opacity:1" fill="#d1765d" d="M 90.5,35.5 C 95.0228,34.8855 99.0228,35.8855 102.5,38.5C 103.338,38.8417 103.672,39.5084 103.5,40.5C 103.5,73.5 103.5,106.5 103.5,139.5C 102.5,139.5 101.5,139.5 100.5,139.5C 100.5,138.167 100.5,136.833 100.5,135.5C 101.833,120.849 102.499,105.849 102.5,90.5C 102.499,75.1515 101.833,60.1515 100.5,45.5C 100.817,42.4535 99.4841,40.7868 96.5,40.5C 92.0061,41.1587 90.3395,43.8254 91.5,48.5C 92.5233,50.8458 93.5233,53.1791 94.5,55.5C 92.4352,55.4828 90.4352,55.1495 88.5,54.5C 86.2445,52.2414 85.2445,49.408 85.5,46C 85.175,41.441 86.8417,37.941 90.5,35.5 Z"/></g>
<g><path style="opacity:0.918" fill="#ca9084" d="M 103.5,40.5 C 104.234,41.8775 104.901,43.3775 105.5,45C 104.592,76.7461 104.258,108.579 104.5,140.5C 102.585,140.784 100.919,140.451 99.5,139.5C 99.8333,139.5 100.167,139.5 100.5,139.5C 101.5,139.5 102.5,139.5 103.5,139.5C 103.5,106.5 103.5,73.5 103.5,40.5 Z"/></g>
<g><path style="opacity:0.715" fill="#deb0a5" d="M 115.5,138.5 C 115.831,107.329 115.498,76.3288 114.5,45.5C 113.833,44.1667 113.167,44.1667 112.5,45.5C 111.172,77.069 111.172,108.736 112.5,140.5C 111.167,124.681 110.501,108.514 110.5,92C 110.504,75.5943 110.837,59.2609 111.5,43C 113.433,42.2174 114.933,42.7174 116,44.5C 116.831,76.0027 116.664,107.336 115.5,138.5 Z"/></g>
<g><path style="opacity:1" fill="#d66e52" d="M 114.5,45.5 C 113.833,169.5 113.167,169.5 112.5,45.5C 113.167,44.1667 113.833,44.1667 114.5,45.5 Z"/></g>
<g><path style="opacity:0.802" fill="#d38c76" d="M 96.5,40.5 C 99.4841,40.7868 100.817,42.4535 100.5,45.5C 100.5,75.5 100.5,105.5 100.5,135.5C 100.5,136.833 100.5,138.167 100.5,139.5C 100.167,139.5 99.8333,139.5 99.5,139.5C 99.6666,107.832 99.5,76.1649 99,44.5C 98.3378,43.0161 97.5045,41.6828 96.5,40.5 Z"/></g>
<g><path style="opacity:1" fill="#d88f7c" d="M 58.5,59.5 C 60.3459,62.54 61.6792,65.8733 62.5,69.5C 59.5688,66.9867 58.2355,63.6533 58.5,59.5 Z"/></g>
<g><path style="opacity:1" fill="#d68b75" d="M 169.5,52.5 C 169.348,56.2782 168.348,59.7782 166.5,63C 166.833,63.5 167.167,64 167.5,64.5C 169.071,62.0293 170.071,59.3626 170.5,56.5C 172.179,56.2852 173.179,56.9519 173.5,58.5C 172.503,58.4701 171.836,58.9701 171.5,60C 165.462,74.2836 160.129,88.7836 155.5,103.5C 153.833,103.5 152.167,103.5 150.5,103.5C 150.5,102.5 150.5,101.5 150.5,100.5C 156.321,84.2082 162.654,68.2082 169.5,52.5 Z"/></g>
<g><path style="opacity:1" fill="#d1745b" d="M 180.5,64.5 C 180.963,67.4824 181.296,70.4824 181.5,73.5C 180.222,73.2178 179.222,72.5511 178.5,71.5C 177.662,71.1583 177.328,70.4916 177.5,69.5C 177.201,67.396 177.534,65.396 178.5,63.5C 179.183,63.8627 179.85,64.1961 180.5,64.5 Z"/></g>
<g><path style="opacity:1" fill="#dc9c8c" d="M 180.5,64.5 C 182.736,69.3198 184.736,74.3198 186.5,79.5C 184.833,77.5 183.167,75.5 181.5,73.5C 181.296,70.4824 180.963,67.4824 180.5,64.5 Z"/></g>
<g><path style="opacity:1" fill="#d68f7b" d="M 45.5,62.5 C 45.1953,69.2222 46.5287,69.8889 49.5,64.5C 48.2656,69.883 46.2656,74.883 43.5,79.5C 43.762,78.0222 43.4287,76.6888 42.5,75.5C 42.1667,75.6667 41.8333,75.8333 41.5,76C 41.2226,79.9626 39.5559,83.1293 36.5,85.5C 38.9329,77.5208 41.9329,69.8541 45.5,62.5 Z"/></g>
<g><path style="opacity:1" fill="#dda292" d="M 178.5,71.5 C 179.222,72.5511 180.222,73.2178 181.5,73.5C 181.5,75.5 181.5,77.5 181.5,79.5C 179.98,77.1098 178.98,74.4432 178.5,71.5 Z"/></g>
<g><path style="opacity:1" fill="#cf7359" d="M 43.5,79.5 C 43.5,79.8333 43.5,80.1667 43.5,80.5C 42.2502,80.5774 41.4169,81.244 41,82.5C 40.5065,84.1341 40.3398,85.8008 40.5,87.5C 38.0181,89.5027 37.0181,92.1694 37.5,95.5C 37.5,95.8333 37.5,96.1667 37.5,96.5C 36.5,96.5 35.5,96.5 34.5,96.5C 34.8333,93.8333 35.1667,91.1667 35.5,88.5C 35.5569,87.391 35.8902,86.391 36.5,85.5C 39.5559,83.1293 41.2226,79.9626 41.5,76C 41.8333,75.8333 42.1667,75.6667 42.5,75.5C 43.4287,76.6888 43.762,78.0222 43.5,79.5 Z"/></g>
<g><path style="opacity:1" fill="#d38974" d="M 62.5,70.5 C 64.0652,72.5093 65.0652,74.8427 65.5,77.5C 65.5,78.5 65.5,79.5 65.5,80.5C 64.8885,83.304 64.8885,86.304 65.5,89.5C 63.6001,86.4822 62.2667,83.1488 61.5,79.5C 61.5,78.1667 61.5,76.8333 61.5,75.5C 62.2216,75.9175 62.7216,76.5842 63,77.5C 63.0178,75.2028 62.8511,72.8695 62.5,70.5 Z"/></g>
<g><path style="opacity:1" fill="#dda293" d="M 181.5,79.5 C 183.256,80.5521 183.923,82.2188 183.5,84.5C 182.069,83.2196 181.402,81.5529 181.5,79.5 Z"/></g>
<g><path style="opacity:1" fill="#ce745a" d="M 181.5,73.5 C 183.167,75.5 184.833,77.5 186.5,79.5C 186.5,79.8333 186.5,80.1667 186.5,80.5C 186.5,82.1667 186.5,83.8333 186.5,85.5C 185.5,85.5 184.5,85.5 183.5,85.5C 183.5,85.1667 183.5,84.8333 183.5,84.5C 183.923,82.2188 183.256,80.5521 181.5,79.5C 181.5,77.5 181.5,75.5 181.5,73.5 Z"/></g>
<g><path style="opacity:1" fill="#e0a595" d="M 43.5,80.5 C 43.0652,83.1573 42.0652,85.4907 40.5,87.5C 40.3398,85.8008 40.5065,84.1341 41,82.5C 41.4169,81.244 42.2502,80.5774 43.5,80.5 Z"/></g>
<g><path style="opacity:1" fill="#da9d8d" d="M 65.5,77.5 C 68.5377,84.2685 71.2044,91.2685 73.5,98.5C 70.2659,92.8152 67.5992,86.8152 65.5,80.5C 65.5,79.5 65.5,78.5 65.5,77.5 Z"/></g>
<g><path style="opacity:1" fill="#d99480" d="M 186.5,80.5 C 188.871,85.2647 190.871,90.2647 192.5,95.5C 190.59,94.0254 189.424,92.0254 189,89.5C 188.111,88.1118 187.611,88.2785 187.5,90C 188.242,93.8926 189.575,97.5593 191.5,101C 191.472,102.07 191.139,102.903 190.5,103.5C 190.5,102.833 190.167,102.5 189.5,102.5C 187.786,96.737 185.786,91.0703 183.5,85.5C 184.5,85.5 185.5,85.5 186.5,85.5C 186.5,83.8333 186.5,82.1667 186.5,80.5 Z"/></g>
<g><path style="opacity:1" fill="#d07058" d="M 65.5,80.5 C 67.5992,86.8152 70.2659,92.8152 73.5,98.5C 73.3671,101.896 72.3671,102.229 70.5,99.5C 69.3591,96.9382 68.5257,94.2716 68,91.5C 67.5831,90.244 66.7498,89.5774 65.5,89.5C 64.8885,86.304 64.8885,83.304 65.5,80.5 Z"/></g>
<g><path style="opacity:0.941" fill="#ddab9b" d="M 40.5,87.5 C 40.2671,90.5418 39.2671,93.2084 37.5,95.5C 37.0181,92.1694 38.0181,89.5027 40.5,87.5 Z"/></g>
<g><path style="opacity:0.678" fill="#f6c4bf" d="M 150.5,100.5 C 150.5,101.5 150.5,102.5 150.5,103.5C 149.833,103.5 149.167,103.5 148.5,103.5C 148.932,102.29 149.599,101.29 150.5,100.5 Z"/></g>
<g><path style="opacity:0.5" fill="#e5a793" d="M 35.5,88.5 C 35.1667,91.1667 34.8333,93.8333 34.5,96.5C 35.5,96.5 36.5,96.5 37.5,96.5C 36.5448,98.7457 35.8782,101.079 35.5,103.5C 47.1714,103.667 58.8381,103.5 70.5,103C 68.1273,98.7559 66.4607,94.2559 65.5,89.5C 66.7498,89.5774 67.5831,90.244 68,91.5C 68.5257,94.2716 69.3591,96.9382 70.5,99.5C 72.3671,102.229 73.3671,101.896 73.5,98.5C 74.9313,99.7804 75.5979,101.447 75.5,103.5C 76.5,103.5 77.5,103.5 78.5,103.5C 78.4349,106.428 77.7682,109.095 76.5,111.5C 76.8076,109.076 76.4742,106.743 75.5,104.5C 74.7065,104.069 73.8732,103.735 73,103.5C 60.5377,104.471 48.0377,104.804 35.5,104.5C 34.8347,102.302 34.1681,99.9688 33.5,97.5C 32.8165,97.8627 32.1499,98.1961 31.5,98.5C 32.3208,94.8733 33.6541,91.54 35.5,88.5 Z"/></g>
<g><path style="opacity:0.968" fill="#cf8d7a" d="M 189.5,102.5 C 189.5,102.833 189.5,103.167 189.5,103.5C 178.167,104.833 166.833,104.833 155.5,103.5C 166.645,103.778 177.979,103.445 189.5,102.5 Z"/></g>
<g><path style="opacity:1" fill="#d69382" d="M 192.5,95.5 C 193.67,97.6502 194.67,99.9836 195.5,102.5C 196.325,103.386 197.325,103.719 198.5,103.5C 198.268,109.297 195.935,113.963 191.5,117.5C 192.119,114.689 193.452,112.189 195.5,110C 196.233,108.234 196.567,106.401 196.5,104.5C 195.5,104.5 194.5,104.5 193.5,104.5C 193.296,101.482 192.963,98.4824 192.5,95.5 Z"/></g>
<g><path style="opacity:1" fill="#d66e52" d="M 192.5,95.5 C 192.963,98.4824 193.296,101.482 193.5,104.5C 194.5,104.5 195.5,104.5 196.5,104.5C 196.567,106.401 196.233,108.234 195.5,110C 193.452,112.189 192.119,114.689 191.5,117.5C 190.167,117.5 188.833,117.5 187.5,117.5C 187.567,118.959 187.234,120.292 186.5,121.5C 184.219,121.077 182.552,121.744 181.5,123.5C 173.721,123.804 166.054,123.138 158.5,121.5C 158.027,120.094 157.027,119.427 155.5,119.5C 154.5,119.167 153.833,118.5 153.5,117.5C 152.711,113.707 150.711,110.707 147.5,108.5C 145.82,106.274 146.153,104.607 148.5,103.5C 149.167,103.5 149.833,103.5 150.5,103.5C 152.167,103.5 153.833,103.5 155.5,103.5C 166.833,104.833 178.167,104.833 189.5,103.5C 189.833,103.5 190.167,103.5 190.5,103.5C 191.139,102.903 191.472,102.07 191.5,101C 189.575,97.5593 188.242,93.8926 187.5,90C 187.611,88.2785 188.111,88.1118 189,89.5C 189.424,92.0254 190.59,94.0254 192.5,95.5 Z"/></g>
<g><path style="opacity:1" fill="#d76d51" d="M 35.5,104.5 C 45.9869,105.494 56.6536,105.828 67.5,105.5C 67.6715,107.492 67.0049,109.158 65.5,110.5C 67.8442,111.337 69.8442,112.671 71.5,114.5C 70.624,115.251 69.624,115.751 68.5,116C 69.3366,117.011 69.67,118.178 69.5,119.5C 67.5,119.5 65.5,119.5 63.5,119.5C 63.5,118.5 63.5,117.5 63.5,116.5C 59.8488,115.532 56.1822,114.532 52.5,113.5C 50.2852,113.67 48.2852,114.337 46.5,115.5C 45.1255,114.289 43.6255,113.289 42,112.5C 39.2764,113.687 36.4431,114.353 33.5,114.5C 33.5,113.5 33.5,112.5 33.5,111.5C 32.5,111.5 31.5,111.5 30.5,111.5C 29.9816,110.423 29.6483,109.256 29.5,108C 30.9863,105.411 31.6529,102.577 31.5,99.5C 31.5,99.1667 31.5,98.8333 31.5,98.5C 32.1499,98.1961 32.8165,97.8627 33.5,97.5C 34.1681,99.9688 34.8347,102.302 35.5,104.5 Z"/></g>
<g><path style="opacity:1" fill="#d2765c" d="M 76.5,111.5 C 75.5501,115.413 73.2167,118.08 69.5,119.5C 69.67,118.178 69.3366,117.011 68.5,116C 69.624,115.751 70.624,115.251 71.5,114.5C 69.8442,112.671 67.8442,111.337 65.5,110.5C 67.0049,109.158 67.6715,107.492 67.5,105.5C 56.6536,105.828 45.9869,105.494 35.5,104.5C 48.0377,104.804 60.5377,104.471 73,103.5C 73.8732,103.735 74.7065,104.069 75.5,104.5C 76.4742,106.743 76.8076,109.076 76.5,111.5 Z"/></g>
<g><path style="opacity:1" fill="#d78f7d" d="M 147.5,108.5 C 150.711,110.707 152.711,113.707 153.5,117.5C 150.288,115.438 148.288,112.438 147.5,108.5 Z"/></g>
<g><path style="opacity:1" fill="#d76d52" d="M 30.5,111.5 C 31.5,111.5 32.5,111.5 33.5,111.5C 33.5,112.5 33.5,113.5 33.5,114.5C 36.4431,114.353 39.2764,113.687 42,112.5C 43.6255,113.289 45.1255,114.289 46.5,115.5C 48.2852,114.337 50.2852,113.67 52.5,113.5C 56.1822,114.532 59.8488,115.532 63.5,116.5C 63.5,117.5 63.5,118.5 63.5,119.5C 64.5981,120.397 64.5981,121.23 63.5,122C 53.907,126.094 45.0737,124.927 37,118.5C 36.5172,117.552 36.3505,116.552 36.5,115.5C 34.8333,115.5 33.1667,115.5 31.5,115.5C 31.5674,114.041 31.2341,112.708 30.5,111.5 Z"/></g>
<g><path style="opacity:1" fill="#d48976" d="M 31.5,99.5 C 31.6529,102.577 30.9863,105.411 29.5,108C 29.6483,109.256 29.9816,110.423 30.5,111.5C 31.2341,112.708 31.5674,114.041 31.5,115.5C 33.1667,115.5 34.8333,115.5 36.5,115.5C 36.3505,116.552 36.5172,117.552 37,118.5C 45.0737,124.927 53.907,126.094 63.5,122C 64.5981,121.23 64.5981,120.397 63.5,119.5C 65.5,119.5 67.5,119.5 69.5,119.5C 66.9399,122.537 63.6065,124.371 59.5,125C 47.7315,127.632 37.8981,124.466 30,115.5C 27.9006,111.769 26.7339,107.769 26.5,103.5C 27.675,103.719 28.675,103.386 29.5,102.5C 29.9424,101.261 30.6091,100.261 31.5,99.5 Z"/></g>
<g><path style="opacity:1" fill="#db988a" d="M 191.5,117.5 C 190.415,119.587 188.749,120.92 186.5,121.5C 187.234,120.292 187.567,118.959 187.5,117.5C 188.833,117.5 190.167,117.5 191.5,117.5 Z"/></g>
<g><path style="opacity:0.553" fill="#e8b5ac" d="M 155.5,119.5 C 157.027,119.427 158.027,120.094 158.5,121.5C 156.973,121.573 155.973,120.906 155.5,119.5 Z"/></g>
<g><path style="opacity:1" fill="#dca595" d="M 186.5,121.5 C 185.22,122.931 183.553,123.598 181.5,123.5C 182.552,121.744 184.219,121.077 186.5,121.5 Z"/></g>
<g><path style="opacity:1" fill="#d89586" d="M 158.5,121.5 C 166.054,123.138 173.721,123.804 181.5,123.5C 173.533,126.564 165.866,125.897 158.5,121.5 Z"/></g>
<g><path style="opacity:1" fill="#d18b77" d="M 100.5,142.5 C 108.84,142.334 117.173,142.5 125.5,143C 127.525,144.194 127.859,145.694 126.5,147.5C 117.853,148.665 109.186,148.832 100.5,148C 99.2475,146.172 99.2475,144.339 100.5,142.5 Z"/></g>
<g><path style="opacity:1" fill="#d66e51" d="M 101.5,144.5 C 108.863,144.169 116.197,144.503 123.5,145.5C 119.833,145.833 116.167,146.167 112.5,146.5C 108.435,146.489 104.768,145.822 101.5,144.5 Z"/></g>
<g><path style="opacity:1" fill="#d3836f" d="M 131.5,151.5 C 131.5,152.833 131.5,154.167 131.5,155.5C 119.167,155.5 106.833,155.5 94.5,155.5C 91.894,154.15 91.894,152.65 94.5,151C 107.007,150.173 119.34,150.34 131.5,151.5 Z"/></g>
<g><path style="opacity:1" fill="#d86d50" d="M 95.5,152.5 C 106.853,152.168 118.186,152.501 129.5,153.5C 123.833,153.833 118.167,154.167 112.5,154.5C 106.458,154.496 100.792,153.829 95.5,152.5 Z"/></g>
<g><path style="opacity:0.727" fill="#d9aea2" d="M 131.5,151.5 C 133.582,152.585 133.916,154.085 132.5,156C 127.914,156.197 123.414,156.697 119,157.5C 111.913,157.772 103.746,157.105 94.5,155.5C 106.833,155.5 119.167,155.5 131.5,155.5C 131.5,154.167 131.5,152.833 131.5,151.5 Z"/></g>
</svg>
